<?xml version="1.0" standalone="no"?><!DOCTYPE svg PUBLIC "-//W3C//DTD SVG 1.1//EN" "http://www.w3.org/Graphics/SVG/1.1/DTD/svg11.dtd"><svg t="1597907996239" class="icon" viewBox="0 0 1210 1024" version="1.1" xmlns="http://www.w3.org/2000/svg" p-id="7831" xmlns:xlink="http://www.w3.org/1999/xlink" width="307.2265625" height="260"><defs><style type="text/css"></style></defs><path d="M735.751166 304.174184a19.11042 19.11042 0 0 1 19.11042 19.110419v586.052878a19.11042 19.11042 0 0 1-19.11042 19.110419H114.662519a19.11042 19.11042 0 0 1-19.110419-19.110419v-586.052878a19.11042 19.11042 0 0 1 19.110419-19.110419h621.088647m0-95.5521H114.662519a114.662519 114.662519 0 0 0-114.662519 114.662519v586.052878a114.662519 114.662519 0 0 0 114.662519 114.662519h621.088647a114.662519 114.662519 0 0 0 114.66252-114.662519v-586.052878a114.662519 114.662519 0 0 0-114.66252-114.662519z" p-id="7832"></path><path d="M360.231415 0m114.66252 0l620.77014 0q114.662519 0 114.662519 114.662519l0 586.052878q0 114.662519-114.662519 114.662519l-620.77014 0q-114.662519 0-114.66252-114.662519l0-586.052878q0-114.662519 114.66252-114.662519Z" p-id="7833"></path><path d="M1095.664075 95.5521a19.11042 19.11042 0 0 1 19.11042 19.110419v585.734371a19.11042 19.11042 0 0 1-19.11042 19.110419H474.893935a19.11042 19.11042 0 0 1-19.11042-19.110419V114.662519a19.11042 19.11042 0 0 1 19.11042-19.110419H1095.664075m0-95.5521H474.893935a114.662519 114.662519 0 0 0-114.66252 114.662519v585.734371a114.662519 114.662519 0 0 0 114.66252 114.662519H1095.664075a114.662519 114.662519 0 0 0 114.662519-114.662519V114.662519A114.662519 114.662519 0 0 0 1095.664075 0z" p-id="7834"></path></svg>