<?xml version="1.0" standalone="no"?><!DOCTYPE svg PUBLIC "-//W3C//DTD SVG 1.1//EN" "http://www.w3.org/Graphics/SVG/1.1/DTD/svg11.dtd"><svg t="1597908687970" class="icon" viewBox="0 0 1117 1024" version="1.1" xmlns="http://www.w3.org/2000/svg" p-id="12381" xmlns:xlink="http://www.w3.org/1999/xlink" width="283.61328125" height="260"><defs><style type="text/css"></style></defs><path d="M535.272727 1024l-395.636363-211.083636V628.922182l251.345454 145.314909L535.272727 615.703273V1024z m46.545455-0.046545V614.074182l147.176727 155.601454L977.454545 631.994182v180.922182l-395.636363 211.037091z m-481.233455-471.272728L0 494.778182l139.636364-153.693091L0 209.687273 405.783273 0l149.643636 111.010909L710.190545 0 1117.090909 212.293818l-139.403636 128.977455L1117.090909 501.527273l-104.354909 57.762909v-0.046546L737.978182 711.447273 582.144 546.629818l345.181091-184.413091L558.592 158.72 189.812364 362.216727 535.272727 545.466182v1.117091L381.812364 715.170909 139.636364 575.162182l-7.447273-4.282182-31.604364-18.292364v0.093091z" p-id="12382"></path></svg>