<?xml version="1.0" standalone="no"?><!DOCTYPE svg PUBLIC "-//W3C//DTD SVG 1.1//EN" "http://www.w3.org/Graphics/SVG/1.1/DTD/svg11.dtd"><svg t="1597902782026" class="icon" viewBox="0 0 1362 1024" version="1.1" xmlns="http://www.w3.org/2000/svg" p-id="5824" xmlns:xlink="http://www.w3.org/1999/xlink" width="345.8203125" height="260"><defs><style type="text/css"></style></defs><path d="M473.264098 379.640424m-52.886655 0a52.886655 52.886655 0 1 0 105.773311 0 52.886655 52.886655 0 1 0-105.773311 0Z" p-id="5825"></path><path d="M940.524846 422.521496H593.759911c-20.154104 0-36.734785-16.437744-36.734785-36.734785v-8.719151c0-22.298157 18.295924-40.451145 40.451144-40.451145h339.046343c22.298157 0 40.451145 18.295924 40.451145 40.451145v8.719151c0.285874 20.297041-16.294807 36.734785-36.448912 36.734785z" p-id="5826"></path><path d="M993.98325 74.898939h-19.010609c-15.580123-43.595757-57.3177-74.898939-106.345059-74.898939H517.574539c-49.027359 0-90.907873 31.303183-106.345058 74.898939h-19.010609c-76.042434 0-137.934115 61.605807-137.934115 137.362368v674.376326c0 75.756561 61.891681 137.362367 137.934115 137.362367h601.764378c76.042434 0 137.934115-61.605807 137.934115-137.362367V212.261307c0-75.756561-61.891681-137.362367-137.934115-137.362368z m-476.408711 0h351.053043c20.725851 0 37.592406 16.866555 37.592407 37.44947 0 20.725851-16.866555 37.44947-37.592407 37.449469H517.574539c-20.725851 0-37.592406-16.866555-37.592406-37.449469 0-20.582915 16.866555-37.44947 37.592406-37.44947z m539.158013 811.738694c0 34.447795-28.158571 62.463428-62.749302 62.463428h-601.764378c-34.590731 0-62.749302-28.015634-62.749302-62.463428V212.261307c0-34.447795 28.158571-62.463428 62.749302-62.463429h19.010609C426.809604 193.393635 468.54718 224.696817 517.574539 224.696817h351.053043c49.027359 0 90.907873-31.303183 106.345059-74.898939h19.010609c34.590731 0 62.749302 28.015634 62.749302 62.463429v674.376326zM918.798437 749.275265" p-id="5827"></path><path d="M467.546622 582.467895m-52.886656 0a52.886655 52.886655 0 1 0 105.773311 0 52.886655 52.886655 0 1 0-105.773311 0Z" p-id="5828"></path><path d="M934.80737 625.491904H588.185371c-20.154104 0-36.734785-16.437744-36.734785-36.734785v-8.719151c0-22.298157 18.295924-40.451145 40.451145-40.451145h339.046343c22.298157 0 40.451145 18.295924 40.451144 40.451145v8.719151c0.142937 20.154104-16.437744 36.734785-36.591848 36.734785z" p-id="5829"></path><path d="M467.546622 792.299274m-52.886656 0a52.886655 52.886655 0 1 0 105.773311 0 52.886655 52.886655 0 1 0-105.773311 0Z" p-id="5830"></path><path d="M934.80737 835.323283H588.185371c-20.154104 0-36.734785-16.437744-36.734785-36.734785v-8.719151c0-22.298157 18.295924-40.451145 40.451145-40.451145h339.046343c22.298157 0 40.451145 18.295924 40.451144 40.451145v8.719151c0.142937 20.154104-16.437744 36.734785-36.591848 36.734785z" p-id="5831"></path></svg>