<?xml version="1.0" standalone="no"?><!DOCTYPE svg PUBLIC "-//W3C//DTD SVG 1.1//EN" "http://www.w3.org/Graphics/SVG/1.1/DTD/svg11.dtd"><svg t="1597902690716" class="icon" viewBox="0 0 1024 1024" version="1.1" xmlns="http://www.w3.org/2000/svg" p-id="4960" xmlns:xlink="http://www.w3.org/1999/xlink" width="260" height="260"><defs><style type="text/css"></style></defs><path d="M771.068168 86.765614a81.854353 81.854353 0 0 1 81.854353 81.854353v685.939476a81.854353 81.854353 0 0 1-81.854353 81.854353h-518.138053a81.854353 81.854353 0 0 1-81.854353-81.854353v-685.120933a81.854353 81.854353 0 0 1 81.854353-81.854352h518.138053m0-86.356343h-518.138053a169.847782 169.847782 0 0 0-170.666326 168.210695v685.120933a169.847782 169.847782 0 0 0 169.43851 169.438511h519.365869a169.847782 169.847782 0 0 0 170.666325-169.438511v-685.120933a169.847782 169.847782 0 0 0-169.43851-169.43851z" p-id="4961"></path><path d="M516.091859 582.843919a188.265011 188.265011 0 0 1-187.323687-146.191874 50.58599 50.58599 0 0 1 42.441482-58.812352 53.205329 53.205329 0 0 1 62.373017 40.067705 85.0876 85.0876 0 0 0 165.018375 0 53.205329 53.205329 0 0 1 62.33209-40.067705 50.545063 50.545063 0 0 1 42.441482 58.812352 188.265011 188.265011 0 0 1-187.323686 146.191874" p-id="4962"></path><path d="M205.577371 766.279524h612.884467a42.768899 42.768899 0 0 0 0-85.496872h-612.884467a42.768899 42.768899 0 0 0 0 85.496872z" p-id="4963"></path><path d="M511.999141 846.374008m-61.390764 0a61.390765 61.390765 0 1 0 122.781529 0 61.390765 61.390765 0 1 0-122.781529 0Z" p-id="4964"></path></svg>