<?xml version="1.0" standalone="no"?><!DOCTYPE svg PUBLIC "-//W3C//DTD SVG 1.1//EN" "http://www.w3.org/Graphics/SVG/1.1/DTD/svg11.dtd"><svg t="1595313046556" class="icon" viewBox="0 0 1537 1024" version="1.1" xmlns="http://www.w3.org/2000/svg" p-id="4706" xmlns:xlink="http://www.w3.org/1999/xlink" width="390.25390625" height="260"><defs><style type="text/css"></style></defs><path d="M1.282484 0h1536.036126v1024H1.282484z" fill="#DC2115" p-id="4707"></path><path d="M257.273452 102.4l-47.451896 146.076698 73.029317 23.73498z" fill="#FFE300" p-id="4708"></path><path d="M257.273452 102.4l47.46996 146.076698-73.047381 23.73498z" fill="#FFE300" p-id="4709"></path><path d="M403.368213 208.539072h-153.627095v76.786453z" fill="#FFE300" p-id="4710"></path><path d="M403.368213 208.539072l-124.274475 90.279626-45.139813-62.137237z" fill="#FFE300" p-id="4711"></path><path d="M111.178691 208.539072l124.274475 90.279626 45.139813-62.137237z" fill="#FFE300" p-id="4712"></path><path d="M111.178691 208.539072h153.627095v76.786453z" fill="#FFE300" p-id="4713"></path><path d="M347.553078 380.265444l-47.451896-146.094761-73.029317 23.753043z" fill="#FFE300" p-id="4714"></path><path d="M347.553078 380.265444l-124.256412-90.279626 45.139813-62.137238z" fill="#FFE300" p-id="4715"></path><path d="M166.993826 380.265444l124.256412-90.279626-45.139813-62.137238z" fill="#FFE300" p-id="4716"></path><path d="M166.993826 380.265444l47.451896-146.094761 73.065444 23.753043zM469.370965 128.736073l49.908485-11.488163-5.762145-24.945211z" fill="#FFE300" p-id="4717"></path><path d="M469.370965 128.736073l33.615523-38.619015 19.327571 16.79873z" fill="#FFE300" p-id="4718"></path><path d="M474.645405 68.784477l26.3722 43.893456 21.946727-13.168037z" fill="#FFE300" p-id="4719"></path><path d="M474.645405 68.784477l47.126759 20.032034-10.006985 23.554348z" fill="#FFE300" p-id="4720"></path><path d="M524.770647 152.308485l4.479662-51.0284-25.487106-2.239831z" fill="#FFE300" p-id="4721"></path><path d="M524.770647 152.308485l-26.336073-43.911519 21.946728-13.1861z" fill="#FFE300" p-id="4722"></path><path d="M533.296454 55.291304l-33.597459 38.619015 19.291444 16.79873z" fill="#FFE300" p-id="4723"></path><path d="M533.296454 55.291304l-4.479661 50.992273-25.505168-2.23983z" fill="#FFE300" p-id="4724"></path><path d="M564.274757 106.897724l-47.108696-20.032033-10.006985 23.554348z" fill="#FFE300" p-id="4725"></path><path d="M564.274757 106.897724l-49.872358 11.488164-5.744082-24.963274zM564.997283 212.043323l50.432317 8.778691 4.389345-25.216158z" fill="#FFE300" p-id="4726"></path><path d="M564.997283 212.043323l45.970718-22.560875 11.271406 22.994391z" fill="#FFE300" p-id="4727"></path><path d="M593.121609 158.829282l7.243323 50.6852 25.360663-3.61263z" fill="#FFE300" p-id="4728"></path><path d="M593.121609 158.829282l35.656659 36.758511-18.388287 17.810267z" fill="#FFE300" p-id="4729"></path><path d="M606.921856 255.232316l23.915611-45.248192-22.633128-11.975869z" fill="#FFE300" p-id="4730"></path><path d="M606.921856 255.232316l-7.243324-50.6852 25.324537-3.61263z" fill="#FFE300" p-id="4731"></path><path d="M652.422932 169.143341l-45.952655 22.560875 11.271406 22.976327z" fill="#FFE300" p-id="4732"></path><path d="M652.422932 169.143341l-23.915611 45.266255-22.633128-11.957806z" fill="#FFE300" p-id="4733"></path><path d="M660.930676 228.733674l-35.638596-36.758511-18.370224 17.82833z" fill="#FFE300" p-id="4734"></path><path d="M660.930676 228.733674l-50.432317-8.778691 4.389346-25.216158zM566.442336 344.337837l42.484529 28.593968 14.287952-21.242265z" fill="#FFE300" p-id="4735"></path><path d="M566.442336 344.337837l51.172905-1.842441 0.92122 25.577421z" fill="#FFE300" p-id="4736"></path><path d="M613.858105 307.218063l-14.071194 49.240148 24.620074 7.044629z" fill="#FFE300" p-id="4737"></path><path d="M613.858105 307.218063l17.53932 48.120233-24.042054 8.778691z" fill="#FFE300" p-id="4738"></path><path d="M587.088516 400.875498l40.316952-31.556324-15.787193-20.158475z" fill="#FFE300" p-id="4739"></path><path d="M587.088516 400.875498l14.053132-49.240148 24.638137 7.026566z" fill="#FFE300" p-id="4740"></path><path d="M663.784653 340.851649l-51.172905 1.806315 0.903158 25.595485z" fill="#FFE300" p-id="4741"></path><path d="M663.784653 340.851649l-40.316951 31.556324-15.787194-20.158476z" fill="#FFE300" p-id="4742"></path><path d="M647.256871 398.70792l-17.575446-48.084106-24.042053 8.778691z" fill="#FFE300" p-id="4743"></path><path d="M647.256871 398.70792l-42.502593-28.575904 14.306015-21.242265z" fill="#FFE300" p-id="4744"></path><path d="M473.308732 428.819192l28.142388 42.77354 21.368707-14.071194z" fill="#FFE300" p-id="4745"></path><path d="M473.308732 428.819192l47.885412 18.081214-9.013512 23.933674z" fill="#FFE300" p-id="4746"></path><path d="M531.345634 412.887493l-31.989839 39.991816 19.995907 15.985888z" fill="#FFE300" p-id="4747"></path><path d="M531.345634 412.887493l-2.366273 51.154843-25.577421-1.192168z" fill="#FFE300" p-id="4748"></path><path d="M470.508943 488.933357l49.366591-13.5293-6.773682-24.674263z" fill="#FFE300" p-id="4749"></path><path d="M470.508943 488.933357l31.971777-39.973752 19.995907 16.003951z" fill="#FFE300" p-id="4750"></path><path d="M472.351385 427.608961l26.968283 43.496066 21.766097-13.47511z" fill="#FFE300" p-id="4751"></path><path d="M472.351385 427.608961l47.379643 19.345634-9.663785 23.698854z" fill="#FFE300" p-id="4752"></path><path d="M530.80374 413.248756l-33.055566 39.088658 19.544329 16.545846z" fill="#FFE300" p-id="4753"></path><path d="M530.80374 413.248756l-3.775199 51.064527-25.523231-1.878568z" fill="#FFE300" p-id="4754"></path><path d="M562.504569 464.403599l-47.397707-19.345635-9.681849 23.716917z" fill="#FFE300" p-id="4755"></path><path d="M562.504569 464.403599l-49.727854 12.210689-6.087281-24.854895z" fill="#FFE300" p-id="4756"></path><path d="M523.650732 510.356253l3.757135-51.046463-25.523231-1.878568z" fill="#FFE300" p-id="4757"></path><path d="M523.650732 510.356253l-26.968284-43.514129 21.748034-13.457047z" fill="#FFE300" p-id="4758"></path></svg>