<?xml version="1.0" standalone="no"?><!DOCTYPE svg PUBLIC "-//W3C//DTD SVG 1.1//EN" "http://www.w3.org/Graphics/SVG/1.1/DTD/svg11.dtd"><svg t="1590386691965" class="icon" viewBox="0 0 1024 1024" version="1.1" xmlns="http://www.w3.org/2000/svg" p-id="12117" xmlns:xlink="http://www.w3.org/1999/xlink" width="200" height="200"><defs><style type="text/css"></style></defs><path d="M835.734065 564.106749V188.035583c0-11.386599-9.276422-20.892843-20.746593-20.892842H731.269852v83.446013C731.269852 273.738023 712.675222 292.499796 689.672202 292.499796H313.204072C290.242838 292.499796 271.627315 273.758916 271.627315 250.588754V167.142741H187.909695C176.62756 167.142741 167.163103 176.502734 167.163103 188.035583v710.356647c0 11.386599 9.276422 20.892843 20.746592 20.892843H480.555741a41.785685 41.785685 0 1 1 0 83.57137H125.314739A41.827471 41.827471 0 0 1 83.591732 960.966294V125.46152A41.785685 41.785685 0 0 1 125.314739 83.57137H271.627315V41.911042C271.627315 18.761773 290.221945 0 313.224965 0H689.693095C712.654329 0 731.269852 18.74088 731.269852 41.911042V83.57137h146.312576C900.627234 83.57137 919.305435 102.354036 919.305435 125.46152V564.106749a41.785685 41.785685 0 0 1-83.57137 0zM355.198686 104.255284v83.989228c0 11.261242 9.401779 20.683914 21.039092 20.683914h250.421611A20.851057 20.851057 0 0 0 647.698482 188.244512V104.255284c0-11.261242-9.401779-20.683914-21.039093-20.683914H376.237778A20.851057 20.851057 0 0 0 355.198686 104.255284zM229.84163 438.749694a41.785685 41.785685 0 0 1 41.723007-41.785685h459.767893c23.044805 0 41.723007 18.552844 41.723007 41.785685a41.785685 41.785685 0 0 1-41.723007 41.785685H271.564637A41.660328 41.660328 0 0 1 229.84163 438.749694z m0 334.285481c0-23.086591 18.845344-41.785685 41.973721-41.785685h166.766669a41.785685 41.785685 0 1 1 0 83.57137H271.836244A41.785685 41.785685 0 0 1 229.84163 773.035175z m0-167.14274c0-23.086591 18.657308-41.785685 41.618543-41.785686h230.155553c22.982127 0 41.618542 18.552844 41.618543 41.785686 0 23.086591-18.657308 41.785685-41.618543 41.785685H271.460173C248.478046 647.67812 229.84163 629.125275 229.84163 605.892435z m694.373623 176.816126c8.795887 0 16.045703 7.208031 15.983025 16.087489v32.133192a16.087489 16.087489 0 0 1-16.045704 16.087489h-19.304986c-8.795887 0-18.176773 6.894638-20.851057 15.335346l-11.052314 26.909981c-4.157676 7.79303-2.465355 19.325879 3.760712 25.551947l13.705705 13.663919c6.267853 6.267853 6.267853 16.484453 0 22.752305l-22.773199 22.731413a16.087489 16.087489 0 0 1-22.71052 0l-13.622133-13.684812c-6.24696-6.226067-17.758916-7.918387-25.572839-3.718926l-26.909981 11.073207c-8.419816 2.611605-15.356239 11.992492-15.35624 20.830164v19.221415a16.150167 16.150167 0 0 1-16.087488 16.066596h-32.133192a16.129274 16.129274 0 0 1-16.087489-16.066596v-19.221415c0-8.837672-6.894638-18.218559-15.356239-20.830164l-26.951767-11.073207c-7.79303-4.199461-19.284094-2.507141-25.489268 3.718926l-13.705705 13.684812a16.087489 16.087489 0 0 1-22.71052 0l-22.752305-22.731413a16.129274 16.129274 0 0 1 0-22.752305l13.684811-13.663919c6.267853-6.226067 7.93928-17.758916 3.781605-25.551947l-11.114992-26.909981c-2.632498-8.440708-11.992492-15.335346-20.830164-15.377132h-19.284094a16.087489 16.087489 0 0 1-16.087489-16.066596v-32.112299c0-8.879458 7.228924-16.087489 16.087489-16.087489h19.284094c8.837672 0 18.239452-6.894638 20.851057-15.335346l11.094099-26.951767c4.178569-7.813923 2.486248-19.284094-3.781605-25.551947l-13.663919-13.705704a16.087489 16.087489 0 0 1 0-22.71052l22.731413-22.71052c6.24696-6.267853 16.484453-6.267853 22.71052 0l13.726598 13.684812c6.267853 6.226067 17.696238 7.93928 25.489268 3.760711l26.930874-11.03142c8.461601-2.632498 15.356239-11.992492 15.356239-20.892843v-19.284094c0-8.837672 7.249816-16.087489 16.087489-16.087488h32.133192c8.81678 0 16.087489 7.249816 16.087488 16.087488v19.284094c0 8.858565 6.936424 18.239452 15.35624 20.851057l26.868195 11.073206c7.813923 4.178569 19.325879 2.465355 25.551947-3.760711l13.705704-13.663919a16.087489 16.087489 0 0 1 22.731413 0l22.773198 22.731412c6.267853 6.226067 6.267853 16.442667 0 22.731413l-13.705704 13.684812c-6.24696 6.24696-7.93928 17.738023-3.760712 25.510161l11.052314 26.951767c2.653391 8.440708 12.013384 15.335346 20.830164 15.335346h19.346772z m-113.970456 30.712479a80.353873 80.353873 0 1 0-160.728638 0 80.353873 80.353873 0 0 0 80.374765 80.353872 80.33298 80.33298 0 0 0 80.353873-80.332979z" p-id="12118"></path></svg>