<?xml version="1.0" standalone="no"?><!DOCTYPE svg PUBLIC "-//W3C//DTD SVG 1.1//EN" "http://www.w3.org/Graphics/SVG/1.1/DTD/svg11.dtd"><svg t="1590387170775" class="icon" viewBox="0 0 1024 1024" version="1.1" xmlns="http://www.w3.org/2000/svg" p-id="20668" width="280" height="280" xmlns:xlink="http://www.w3.org/1999/xlink"><defs><style type="text/css"></style></defs><path d="M979.968 565.36177778v-139.94666667c0-16.72533333-13.65333333-30.37866667-30.37866667-30.37866666h-14.79111111L913.63555555 306.40355555c-1.70666667-23.09688889-23.21066667-41.41511111-49.26577777-41.4151111h-230.96888889c-26.05511111 0-47.44533333 18.31822222-49.26577778 41.4151111l-21.16266666 88.6328889h-14.79111112c-16.72533333 0-30.37866667 13.65333333-30.37866666 30.37866666v139.94666667c0 16.72533333 13.65333333 30.37866667 30.37866666 30.37866667h44.82844445c-0.11377778 1.13777778-0.11377778 2.27555555-0.11377778 3.41333333 0 21.84533333 17.74933333 39.59466667 39.59466667 39.59466667s39.59466667-17.74933333 39.59466666-39.59466667c0-1.13777778-0.11377778-2.27555555-0.11377778-3.41333333h153.94133334c-0.11377778 1.13777778-0.11377778 2.27555555-0.11377778 3.41333333 0 21.84533333 17.74933333 39.59466667 39.59466667 39.59466667s39.59466667-17.74933333 39.59466667-39.59466667c0-1.13777778-0.11377778-2.27555555-0.11377778-3.41333333h44.82844444c16.61155555 0 30.26488889-13.65333333 30.26488889-30.37866667zM627.59822222 312.09244445v-1.5928889c0.79644445-0.68266667 2.73066667-1.82044445 5.68888889-1.82044444h230.96888889c2.95822222 0 4.89244445 1.13777778 5.68888889 1.82044444v1.5928889l19.68355556 82.03377777H608.02844445l19.56977777-82.03377777z m308.67911111 239.95733333H561.37955555v-113.32266667h374.89777778v113.32266667z" p-id="20669"></path><path d="M619.13269248 501.65016235a27.42044445 27.42044445 0 1 0 53.37307477-12.60309049 27.42044445 27.42044445 0 1 0-53.37307477 12.60309049Z" p-id="20670"></path><path d="M845.56715122 522.13195776a27.42044445 27.42044445 0 1 0 12.60309163-53.37307591 27.42044445 27.42044445 0 1 0-12.60309163 53.37307591Z" p-id="20671"></path><path d="M162.47466667 232.56177778h45.28355555v375.46666667h-45.28355555zM242.80177778 350.09422222h45.28355555v257.93422223h-45.28355555zM323.12888889 271.47377778h45.28355556v336.66844444H323.12888889zM403.456 444.52977778h45.28355555v163.61244444h-45.28355555zM633.74222222 800.08533333H401.63555555v132.66488889H177.83466667v66.33244445h679.70844444v-66.33244445H633.74222222z" p-id="20672"></path><path d="M962.78755555 41.64266667H72.59022222c-36.52266667 0-66.33244445 29.696-66.33244444 66.33244444v586.97955556c0 36.52266667 29.696 66.33244445 66.33244444 66.33244444h889.40088889c8.76088889 0 17.18044445-3.52711111 23.43822222-9.67111111 6.25777778-6.25777778 9.67111111-14.67733333 9.67111112-23.43822222 0-8.76088889-3.52711111-17.18044445-9.67111112-23.43822223-6.25777778-6.25777778-14.67733333-9.67111111-23.43822222-9.6711111H72.59022222v-587.09333334h890.19733333v175.55911111c0 18.31822222 14.79111111 33.10933333 33.10933334 33.10933333s33.10933333-14.79111111 33.10933333-33.10933333V107.97511111c0.11377778-36.63644445-29.696-66.33244445-66.21866667-66.33244444z" p-id="20673"></path></svg>