<?xml version="1.0" standalone="no"?><!DOCTYPE svg PUBLIC "-//W3C//DTD SVG 1.1//EN" "http://www.w3.org/Graphics/SVG/1.1/DTD/svg11.dtd"><svg t="1611626688691" class="icon" viewBox="0 0 1024 1024" version="1.1" xmlns="http://www.w3.org/2000/svg" p-id="8270" xmlns:xlink="http://www.w3.org/1999/xlink" width="200" height="200"><defs><style type="text/css"></style></defs><path d="M236.8 435.2m-44.8 0a44.8 44.8 0 1 0 89.6 0 44.8 44.8 0 1 0-89.6 0Z" p-id="8271"></path><path d="M985.6 38.4H38.4c-19.2 0-38.4 19.2-38.4 38.4v710.4c0 19.2 19.2 38.4 38.4 38.4h352c19.2 0 38.4-19.2 38.4-38.4s-12.8-38.4-38.4-38.4H76.8V115.2h864v627.2H627.2c-12.8 0-19.2 6.4-25.6 12.8l-192 192c-12.8 6.4-19.2 19.2-19.2 32 0 19.2 19.2 38.4 38.4 38.4 12.8 0 19.2-6.4 25.6-12.8l185.6-185.6h339.2c19.2 0 38.4-19.2 38.4-38.4v-704c6.4-19.2-12.8-38.4-32-38.4z" p-id="8272"></path><path d="M512 435.2m-44.8 0a44.8 44.8 0 1 0 89.6 0 44.8 44.8 0 1 0-89.6 0Z" p-id="8273"></path><path d="M787.2 435.2m-44.8 0a44.8 44.8 0 1 0 89.6 0 44.8 44.8 0 1 0-89.6 0Z" p-id="8274"></path></svg>