<?xml version="1.0" standalone="no"?><!DOCTYPE svg PUBLIC "-//W3C//DTD SVG 1.1//EN" "http://www.w3.org/Graphics/SVG/1.1/DTD/svg11.dtd"><svg t="1590387935686" class="icon" viewBox="0 0 1024 1024" version="1.1" xmlns="http://www.w3.org/2000/svg" p-id="26462" xmlns:xlink="http://www.w3.org/1999/xlink" width="260" height="260"><defs><style type="text/css"></style></defs><path d="M971.66222222 962.32903112H52.33777778V58.82652445h919.32444444v903.50250667z m-871.53777777-47.78666667h823.7511111V106.61319112H100.12444445v807.92917333z" p-id="26463"></path><path d="M942.08 304.69233778H81.92c-13.19594667 0-23.89333333-10.69738667-23.89333333-23.89333333s10.69738667-23.89333333 23.89333333-23.89333333h860.16c13.19594667 0 23.89333333 10.69738667 23.89333333 23.89333333s-10.69852445 23.89333333-23.89333333 23.89333333zM942.08 528.78222222H81.92c-13.19594667 0-23.89333333-10.69738667-23.89333333-23.89333333s10.69738667-23.89333333 23.89333333-23.89333333h860.16c13.19594667 0 23.89333333 10.69738667 23.89333333 23.89333333s-10.69852445 23.89333333-23.89333333 23.89333333zM942.08 740.97777778H81.92c-13.19594667 0-23.89333333-10.69738667-23.89333333-23.89333333s10.69738667-23.89333333 23.89333333-23.89333333h860.16c13.19594667 0 23.89333333 10.69738667 23.89333333 23.89333333s-10.69852445 23.89333333-23.89333333 23.89333333z" p-id="26464"></path><path d="M356.12444445 956.50019556c-13.19594667 0-23.89333333-10.69738667-23.89333334-23.89333334v-650.80888888c0-13.19594667 10.69738667-23.89333333 23.89333334-23.89333334s23.89333333 10.69738667 23.89333333 23.89333334v650.80888888c0 13.19480889-10.69738667 23.89333333-23.89333333 23.89333334zM655.36 956.50019556c-13.19594667 0-23.89333333-10.69738667-23.89333333-23.89333334v-650.80888888c0-13.19594667 10.69738667-23.89333333 23.89333333-23.89333334s23.89333333 10.69738667 23.89333333 23.89333334v650.80888888c0 13.19480889-10.69852445 23.89333333-23.89333333 23.89333334z" p-id="26465"></path></svg>