<?xml version="1.0" standalone="no"?><!DOCTYPE svg PUBLIC "-//W3C//DTD SVG 1.1//EN" "http://www.w3.org/Graphics/SVG/1.1/DTD/svg11.dtd"><svg t="1595313030475" class="icon" viewBox="0 0 1542 1024" version="1.1" xmlns="http://www.w3.org/2000/svg" p-id="3946" xmlns:xlink="http://www.w3.org/1999/xlink" width="391.5234375" height="260"><defs><style type="text/css"></style></defs><path d="M7.548 1017.71h1520.904V6.29H7.548v1011.42z m1523.42 2.516v-3.774 3.774zM1.258 1024V0h1533.484v1024H1.258z" fill="#353636" p-id="3947"></path><path d="M3.774 706.988h1527.194v77.995H3.774z" fill="#FFFFFF" p-id="3948"></path><path d="M3.774 628.993h1527.194v77.995H3.774z" fill="#C22045" p-id="3949"></path><path d="M3.774 864.236h1527.194v77.995H3.774z" fill="#FFFFFF" p-id="3950"></path><path d="M3.774 942.231h1527.194v77.995H3.774z m0-155.99h1527.194v77.995H3.774z" fill="#C22045" p-id="3951"></path><path d="M3.774 550.998h1527.194v77.995H3.774z" fill="#FFFFFF" p-id="3952"></path><path d="M3.774 315.754h1527.194v77.995H3.774z" fill="#C22045" p-id="3953"></path><path d="M3.774 80.511h1527.194v77.995H3.774z" fill="#FFFFFF" p-id="3954"></path><path d="M3.774 158.506h1527.194v77.995H3.774z m0 313.238h1527.194v77.996H3.774z m0-469.228h1527.194v77.995H3.774z" fill="#C22045" p-id="3955"></path><path d="M3.774 237.76h1527.194v77.994H3.774z m0 155.99h1527.194v77.994H3.774z" fill="#FFFFFF" p-id="3956"></path><path d="M3.774 2.516h611.38v548.482H3.775z" fill="#004981" p-id="3957"></path><path d="M462.939 31.45l3.774 13.837h13.837l-11.321 7.548 5.031 12.58-11.321-7.548-11.322 7.548 5.032-12.58-11.322-7.548h13.838z m0 114.476l3.774 12.58h13.837l-11.321 8.806 5.031 12.58-11.321-7.548-11.322 7.548 5.032-12.58-11.322-8.806h13.838z m0 114.477l3.774 12.58h13.837l-11.321 7.548 5.031 13.838-11.321-8.806-11.322 8.806 5.032-13.838-11.322-7.548h13.838z m0 115.735l3.774 13.837h13.837l-11.321 7.548 5.031 12.58-11.321-7.548-11.322 7.548 5.032-12.58-11.322-7.548h13.838z m0 111.96l3.774 12.58h13.837l-11.321 8.806 5.031 12.58-11.321-7.548-11.322 7.548 5.032-12.58-11.322-8.806h13.838zM361.042 31.45l3.774 13.837h13.838l-11.322 7.548 5.032 12.58-11.322-7.548-11.322 7.548 3.774-12.58-10.064-7.548h12.58z m0 114.476l3.774 12.58h13.838l-11.322 8.806 5.032 12.58-11.322-7.548-11.322 7.548 3.774-12.58-10.064-8.806h12.58z m0 114.477l3.774 12.58h13.838l-11.322 7.548 5.032 13.838-11.322-8.806-11.322 8.806 3.774-13.838-10.064-7.548h12.58z m0 115.735l3.774 13.837h13.838l-11.322 7.548 5.032 12.58-11.322-7.548-11.322 7.548 3.774-12.58-10.064-7.548h12.58z m0 111.96l3.774 12.58h13.838l-11.322 8.806 5.032 12.58-11.322-7.548-11.322 7.548 3.774-12.58-10.064-8.806h12.58zM259.145 31.45l3.774 13.837h13.838l-11.322 7.548 3.774 12.58-10.064-7.548-11.322 7.548 3.774-12.58-11.322-7.548h13.838z m0 114.476l3.774 12.58h13.838l-11.322 8.806 3.774 12.58-10.064-7.548-11.322 7.548 3.774-12.58-11.322-8.806h13.838z m0 114.477l3.774 12.58h13.838l-11.322 7.548 3.774 13.838-10.064-8.806-11.322 8.806 3.774-13.838-11.322-7.548h13.838z m0 115.735l3.774 13.837h13.838l-11.322 7.548 3.774 12.58-10.064-7.548-11.322 7.548 3.774-12.58-11.322-7.548h13.838z m0 111.96l3.774 12.58h13.838l-11.322 8.806 3.774 12.58-10.064-7.548-11.322 7.548 3.774-12.58-11.322-8.806h13.838zM155.99 31.45l5.032 13.837h12.58l-10.064 7.548 3.774 12.58-11.322-7.548-11.322 7.548 5.032-12.58-11.322-7.548h13.838z m0 114.476l5.032 12.58h12.58l-10.064 8.806 3.774 12.58-11.322-7.548-11.322 7.548 5.032-12.58-11.322-8.806h13.838z m0 114.477l5.032 12.58h12.58l-10.064 7.548 3.774 13.838-11.322-8.806-11.322 8.806 5.032-13.838-11.322-7.548h13.838z m0 115.735l5.032 13.837h12.58l-10.064 7.548 3.774 12.58-11.322-7.548-11.322 7.548 5.032-12.58-11.322-7.548h13.838z m0 111.96l5.032 12.58h12.58l-10.064 8.806 3.774 12.58-11.322-7.548-11.322 7.548 5.032-12.58-11.322-8.806h13.838zM54.093 31.45l3.774 13.837h13.838l-11.322 7.548 5.032 12.58-11.322-7.548-11.322 7.548 5.032-12.58-11.321-7.548h13.837z m0 114.476l3.774 12.58h13.838l-11.322 8.806 5.032 12.58-11.322-7.548-11.322 7.548 5.032-12.58-11.321-8.806h13.837z m0 114.477l3.774 12.58h13.838l-11.322 7.548 5.032 13.838-11.322-8.806-11.322 8.806 5.032-13.838-11.321-7.548h13.837z m0 115.735l3.774 13.837h13.838l-11.322 7.548 5.032 12.58-11.322-7.548-11.322 7.548 5.032-12.58-11.321-7.548h13.837z m0 111.96l3.774 12.58h13.838l-11.322 8.806 5.032 12.58-11.322-7.548-11.322 7.548 5.032-12.58-11.321-8.806h13.837zM515.774 89.317l3.774 12.58h13.838l-11.322 7.548 3.774 13.838-10.064-8.806-11.322 8.806 3.774-13.838-11.322-7.548h13.838z m0 116.993l3.774 13.837h13.838l-11.322 7.548 3.774 12.58-10.064-7.548-11.322 7.548 3.774-12.58-11.322-7.548h13.838z m-1.258 115.734l3.774 12.58h13.838l-11.322 8.806 5.032 12.58-11.322-7.548-11.322 7.548 3.774-12.58-11.322-8.806h13.838z m-1.258 114.477l3.774 12.58h13.838l-11.322 7.548 5.032 13.837-11.322-8.805-11.322 8.805 3.774-13.837-10.064-7.548h13.838zM412.619 89.317l5.032 12.58h12.58l-10.064 7.548 3.774 13.838-11.322-8.806-11.322 8.806 5.032-13.838-11.322-7.548h13.838z m0 116.993l5.032 13.837h12.58l-10.064 7.548 3.774 12.58-11.322-7.548-11.322 7.548 5.032-12.58-11.322-7.548h13.838z m-1.258 115.734l5.032 12.58h13.838l-11.322 8.806 3.774 12.58-11.322-7.548-10.064 7.548 3.774-12.58-11.322-8.806h13.838z m0 114.477l3.774 12.58h13.838l-11.322 7.548 3.774 13.837-10.064-8.805-11.322 8.805 3.774-13.837-11.322-7.548h13.838zM310.722 84.285l3.774 13.838h13.838l-11.322 7.548 5.032 12.58-11.322-7.548-11.322 7.548 5.032-12.58-11.321-7.548h13.837z m0 118.25l3.774 12.58h13.838l-11.322 8.806 5.032 12.58-11.322-7.548-11.322 7.548 5.032-12.58-11.321-8.806h13.837z m-1.258 115.735l5.032 12.58h12.58l-10.064 7.548 3.774 13.838-11.322-8.806-11.321 8.806 5.031-13.838-11.321-7.548h13.837z m-1.258 113.219l5.032 13.838h13.838l-11.322 7.548 3.774 12.58-11.322-7.548-10.063 7.548 3.773-12.58-11.321-7.548h13.837z m-99.38-347.204l3.774 12.58h13.837l-11.322 7.548 3.774 13.838-10.063-8.806-11.322 8.806 3.774-13.838-11.322-7.548h13.838z m0 116.993l3.774 12.58h13.837l-11.322 8.805 3.774 12.58-10.063-7.548-11.322 7.548 3.774-12.58-11.322-8.806h13.838z m-1.258 115.734l3.774 12.58h13.837l-11.322 7.548 5.032 13.838-11.321-8.806-11.322 8.806 3.774-13.838-10.064-7.548h13.838z m-1.258 113.219l3.774 13.838h13.837l-10.064 7.548 3.774 12.58-11.321-7.548-11.322 7.548 5.032-12.58-11.322-7.548h13.838zM105.67 81.769l5.033 12.58h13.838l-11.322 8.806 3.774 12.58-11.322-7.548-10.064 7.548 3.774-12.58-11.322-8.806h13.838z m0 116.993l5.033 13.838h13.838l-11.322 7.547 3.774 12.58-11.322-7.548-10.064 7.548 3.774-12.58-11.322-7.547h13.838z m0 115.734l3.775 12.58h13.838l-11.322 8.806 3.774 12.58-10.064-7.548-11.322 7.548 3.774-12.58-11.322-8.806h13.838z m-1.257 114.477l3.774 12.58h13.838l-11.322 7.548 5.032 13.838-11.322-8.806-11.322 8.806 3.774-13.838-10.064-7.548h12.58zM564.835 31.45l5.032 13.837h13.838l-11.322 7.548 3.774 12.58-11.322-7.548-10.064 7.548 3.774-12.58-11.321-7.548h13.837z m0 114.476l5.032 12.58h13.838l-11.322 8.806 3.774 12.58-11.322-7.548-10.064 7.548 3.774-12.58-11.321-8.806h13.837z m0 114.477l5.032 12.58h13.838l-11.322 7.548 3.774 13.838-11.322-8.806-10.064 8.806 3.774-13.838-11.321-7.548h13.837z m0 115.735l5.032 13.837h13.838l-11.322 7.548 3.774 12.58-11.322-7.548-10.064 7.548 3.774-12.58-11.321-7.548h13.837z m0 111.96l5.032 12.58h13.838l-11.322 8.806 3.774 12.58-11.322-7.548-10.064 7.548 3.774-12.58-11.321-8.806h13.837z" fill="#FFFFFF" p-id="3958"></path></svg>