<?xml version="1.0" standalone="no"?><!DOCTYPE svg PUBLIC "-//W3C//DTD SVG 1.1//EN" "http://www.w3.org/Graphics/SVG/1.1/DTD/svg11.dtd"><svg t="1597902860349" class="icon" viewBox="0 0 1024 1024" version="1.1" xmlns="http://www.w3.org/2000/svg" p-id="6672" xmlns:xlink="http://www.w3.org/1999/xlink" width="260" height="260"><defs><style type="text/css"></style></defs><path d="M415.1808 942.4512H163.9936C93.661867 942.4512 38.4 887.189333 38.4 816.8576V163.771733C38.4 93.44 93.661867 38.178133 163.9936 38.178133h552.610133c70.331733 0 125.5936 55.261867 125.5936 125.5936v150.711467c0 15.072-10.048 25.117867-25.117866 25.117867-15.072 0-25.117867-10.048-25.117867-25.117867V163.771733c0-40.189867-35.165867-75.355733-75.355733-75.355733H163.9936c-40.189867 0-75.355733 35.165867-75.355733 75.355733v653.085867c0 40.189867 35.165867 75.355733 75.355733 75.355733h251.1872c15.072 0 25.117867 10.048 25.117867 25.117867s-10.048 25.12-25.117867 25.12z" p-id="6673"></path><path d="M415.1808 950.9824H163.9936C88.782933 950.9824 29.866667 892.068267 29.866667 816.8576V163.773867c0-75.210667 58.916267-134.126933 134.126933-134.126934h552.610133c75.2128 0 134.126933 58.916267 134.126934 134.126934v150.711466c0 19.8144-13.8368 33.6512-33.6512 33.6512s-33.6512-13.838933-33.6512-33.6512V163.773867c0-35.5968-31.2256-66.8224-66.8224-66.8224H163.9936c-35.5968 0-66.8224 31.2256-66.8224 66.8224v653.085866c0 35.5968 31.2256 66.820267 66.8224 66.820267h251.1872c19.8144 0 33.6512 13.8368 33.6512 33.6512s-13.838933 33.6512-33.6512 33.6512zM163.9936 46.711467C98.353067 46.711467 46.933333 98.1312 46.933333 163.773867v653.085866c0 65.640533 51.419733 117.058133 117.060267 117.058134h251.1872c10.385067 0 16.584533-6.199467 16.584533-16.584534s-6.199467-16.584533-16.584533-16.584533H163.9936c-44.689067 0-83.889067-39.2-83.889067-83.886933V163.773867c0-44.689067 39.2-83.889067 83.889067-83.889067h552.610133c44.689067 0 83.889067 39.2 83.889067 83.889067v150.711466c0 10.385067 6.199467 16.584533 16.584533 16.584534s16.584533-6.199467 16.584534-16.584534V163.773867c0-65.642667-51.419733-117.060267-117.060267-117.060267H163.9936z" p-id="6674"></path><path d="M721.627733 540.552533c95.451733 0 175.831467 80.379733 175.831467 175.831467s-80.379733 175.831467-175.831467 175.831467-175.831467-80.379733-175.831466-175.831467 80.379733-175.831467 175.831466-175.831467m0-50.237866c-125.5936 0-226.0672 100.4736-226.0672 226.0672s100.4736 226.0672 226.0672 226.0672 226.0672-100.4736 226.0672-226.0672-100.4736-226.0672-226.0672-226.0672z" p-id="6675"></path><path d="M721.627733 950.9824c-63.022933 0-122.033067-24.305067-166.165333-68.4352-44.132267-44.132267-68.437333-103.1424-68.437333-166.165333s24.305067-122.033067 68.437333-166.167467c44.132267-44.132267 103.1424-68.4352 166.165333-68.4352s122.033067 24.305067 166.167467 68.4352c44.132267 44.1344 68.4352 103.144533 68.4352 166.167467s-24.305067 122.033067-68.4352 166.165333-103.144533 68.4352-166.167467 68.4352z m0-452.1344c-119.9488 0-217.533867 97.585067-217.533866 217.536 0 119.9488 97.5872 217.533867 217.533866 217.533867 119.950933 0 217.536-97.585067 217.536-217.533867-0.002133-119.950933-97.5872-217.536-217.536-217.536z m0 401.898667c-99.936 0-184.3648-84.426667-184.3648-184.362667s84.4288-184.3648 184.3648-184.3648 184.3648 84.4288 184.3648 184.3648-84.430933 184.362667-184.3648 184.362667z m0-351.6608c-90.685867 0-167.298133 76.612267-167.298133 167.298133 0 90.683733 76.612267 167.296 167.298133 167.296s167.298133-76.612267 167.298134-167.296c0-90.685867-76.6144-167.298133-167.298134-167.298133z" p-id="6676"></path><path d="M646.272 681.216c-5.024 0-15.072-5.024-20.093867-10.048-10.048-10.048-10.048-25.117867 0-35.165867 30.141867-30.141867 60.283733-40.189867 95.451734-40.189866 30.141867 0 65.307733 10.048 85.403733 30.141866 10.048 10.048 10.048 25.117867 0 35.165867-10.048 10.048-25.117867 10.048-35.165867 0-15.072-15.072-30.141867-20.093867-50.237866-20.093867s-40.189867 10.048-55.261867 30.141867c-5.026133 5.024-15.072 10.048-20.096 10.048z" p-id="6677"></path><path d="M646.269867 689.749333c-8.0064 0-20.196267-6.613333-26.129067-12.548266-6.468267-6.468267-10.033067-14.856533-10.033067-23.616 0-8.757333 3.5648-17.1456 10.0352-23.616 29.5232-29.5232 60.821333-42.690133 101.482667-42.690134 35.716267 0 71.607467 12.8128 91.4368 32.644267 13.4656 13.463467 13.4656 33.770667 0 47.234133-6.4704 6.4704-14.858667 10.033067-23.616 10.033067s-17.1456-3.562667-23.616-10.030933c-12.663467-12.6656-25.056-17.597867-44.2048-17.597867-18.306133 0-35.5072 9.4912-48.433067 26.728533l-0.7936 0.913067c-5.9328 5.934933-18.1248 12.546133-26.129066 12.546133z m75.357866-85.403733c-36.256 0-62.997333 11.272533-89.416533 37.691733-3.246933 3.246933-5.034667 7.349333-5.034667 11.547734 0 4.200533 1.787733 8.302933 5.034667 11.547733 3.918933 3.921067 11.808 7.453867 14.0608 7.549867 2.237867-0.093867 9.5936-3.342933 13.681067-7.178667 16.189867-21.2928 38.0672-33.0112 61.674666-33.0112 23.605333 0 40.4352 6.7584 56.273067 22.596267 3.2448 3.2448 7.3472 5.032533 11.547733 5.032533s8.302933-1.787733 11.549867-5.034667c3.246933-3.2448 5.034667-7.3472 5.034667-11.547733s-1.787733-8.302933-5.034667-11.549867c-16.7936-16.791467-47.9488-27.643733-79.370667-27.643733zM952.718933 987.665067l-105.4976-105.4976c-10.048-10.048-10.048-25.117867 0-35.165867 10.048-10.048 25.117867-10.048 35.165867 0l105.4976 105.4976c10.048 10.048 10.048 25.117867 0 35.165867-10.048 10.045867-25.117867 10.045867-35.165867 0z" p-id="6678"></path><path d="M970.301867 1003.733333c-8.757333 0-17.1456-3.562667-23.616-10.0352l-105.4976-105.4976c-6.472533-6.4704-10.0352-14.858667-10.0352-23.616s3.562667-17.1456 10.0352-23.616c6.4704-6.472533 14.858667-10.0352 23.616-10.0352s17.1456 3.562667 23.616 10.0352l105.4976 105.4976c13.4656 13.463467 13.4656 33.770667 0 47.234134-6.4704 6.4704-14.856533 10.033067-23.616 10.033066z m-105.4976-155.735466c-4.200533 0-8.302933 1.787733-11.549867 5.034666s-5.034667 7.349333-5.034667 11.549867 1.787733 8.302933 5.034667 11.549867l105.4976 105.4976c3.246933 3.246933 7.349333 5.034667 11.549867 5.034666s8.302933-1.787733 11.549866-5.034666c6.692267-6.6944 6.692267-16.405333 0-23.099734l-105.4976-105.4976c-3.246933-3.246933-7.349333-5.034667-11.549866-5.034666z" p-id="6679"></path><path d="M616.130133 289.365333H264.4672c-15.072 0-25.117867-10.048-25.117867-25.117866 0-15.072 10.048-25.117867 25.117867-25.117867H616.128c15.072 0 25.117867 10.048 25.117867 25.117867 0.002133 15.069867-10.045867 25.117867-25.115734 25.117866z" p-id="6680"></path><path d="M616.130133 297.898667H264.4672c-19.8144 0-33.6512-13.838933-33.6512-33.6512s13.838933-33.6512 33.6512-33.6512H616.128c19.8144 0 33.6512 13.838933 33.6512 33.6512s-13.834667 33.6512-33.649067 33.6512z m-351.662933-50.237867c-10.385067 0-16.584533 6.199467-16.584533 16.584533s6.199467 16.584533 16.584533 16.584534H616.128c10.385067 0 16.584533-6.199467 16.584533-16.584534s-6.199467-16.584533-16.584533-16.584533H264.4672z" p-id="6681"></path><path d="M616.130133 440.0768H264.4672c-15.072 0-25.117867-10.048-25.117867-25.117867 0-15.072 10.048-25.117867 25.117867-25.117866H616.128c15.072 0 25.117867 10.048 25.117867 25.117866 0.002133 15.072-10.045867 25.117867-25.115734 25.117867z" p-id="6682"></path><path d="M616.130133 448.612267H264.4672c-19.8144 0-33.6512-13.838933-33.6512-33.6512s13.838933-33.6512 33.6512-33.6512H616.128c19.8144 0 33.6512 13.838933 33.6512 33.6512s-13.834667 33.6512-33.649067 33.6512z m-351.662933-50.237867c-10.385067 0-16.584533 6.199467-16.584533 16.584533s6.199467 16.584533 16.584533 16.584534H616.128c10.385067 0 16.584533-6.199467 16.584533-16.584534s-6.199467-16.584533-16.584533-16.584533H264.4672z" p-id="6683"></path><path d="M580.962133 721.405867c0 13.873067 11.246933 25.117867 25.117867 25.117866 13.873067 0 25.117867-11.246933 25.117867-25.117866 0-13.873067-11.246933-25.117867-25.117867-25.117867-13.870933 0-25.117867 11.246933-25.117867 25.117867z" p-id="6684"></path><path d="M606.082133 755.0592c-18.555733 0-33.6512-15.095467-33.6512-33.6512s15.095467-33.6512 33.6512-33.6512 33.6512 15.095467 33.6512 33.6512-15.095467 33.6512-33.6512 33.6512z m0-50.237867c-9.1456 0-16.584533 7.438933-16.584533 16.584534s7.438933 16.584533 16.584533 16.584533 16.584533-7.438933 16.584534-16.584533-7.438933-16.584533-16.584534-16.584534z" p-id="6685"></path></svg>