<?xml version="1.0" standalone="no"?><!DOCTYPE svg PUBLIC "-//W3C//DTD SVG 1.1//EN" "http://www.w3.org/Graphics/SVG/1.1/DTD/svg11.dtd"><svg t="1597902407084" class="icon" viewBox="0 0 1024 1024" version="1.1" xmlns="http://www.w3.org/2000/svg" p-id="4171" xmlns:xlink="http://www.w3.org/1999/xlink" width="260" height="260"><defs><style type="text/css"></style></defs><path d="M716.8 68.266667c37.614933 0 68.266667 30.651733 68.266667 68.266666v750.933334c0 37.614933-30.651733 68.266667-68.266667 68.266666h-409.6c-37.614933 0-68.266667-30.651733-68.266667-68.266666V136.533333c0-37.614933 30.651733-68.266667 68.266667-68.266666h409.6m0-68.266667h-409.6a136.533333 136.533333 0 0 0-136.533333 136.533333v750.933334a136.533333 136.533333 0 0 0 136.533333 136.533333h409.6a136.533333 136.533333 0 0 0 136.533333-136.533333V136.533333a136.533333 136.533333 0 0 0-136.533333-136.533333z" p-id="4172"></path><path d="M512.682667 844.117333a40.96 40.96 0 1 1-0.068267 81.988267 40.96 40.96 0 0 1 0.068267-81.988267zM204.8 204.8h648.533333v68.266667H204.8zM204.8 750.933333h648.533333v68.266667H204.8z" p-id="4173"></path><path d="M612.9664 645.5296H570.709333V378.4704h42.257067v267.0592z m-149.981867-1.911467H462.848c-8.874667 0-17.749333-0.546133-26.692267-1.160533l-4.9152-0.341333-10.922666-40.618667 9.762133 0.887467c7.031467 0.682667 16.247467 1.4336 25.873067 1.4336 15.428267 0 25.326933-3.072 27.170133-8.328534 1.160533-3.822933 3.072-15.086933 3.345067-44.987733H378.811733l17.066667-102.6048h88.541867v-21.367467H386.8672v-39.3216h139.332267V487.424H430.6944l-5.051733 23.483733h103.287466v6.826667c0 45.806933-2.116267 77.687467-6.212266 94.754133-4.642133 19.0464-24.098133 29.218133-59.528534 31.1296h-0.2048z" p-id="4174"></path></svg>