<?xml version="1.0" standalone="no"?><!DOCTYPE svg PUBLIC "-//W3C//DTD SVG 1.1//EN" "http://www.w3.org/Graphics/SVG/1.1/DTD/svg11.dtd"><svg t="1597908069992" class="icon" viewBox="0 0 1024 1024" version="1.1" xmlns="http://www.w3.org/2000/svg" p-id="8641" xmlns:xlink="http://www.w3.org/1999/xlink" width="260" height="260"><defs><style type="text/css"></style></defs><path d="M133 939.3c-13.8 0-25-11.2-25-25 0-51.3 10.1-101.1 29.9-148 19.1-45.3 46.6-85.9 81.5-120.8 34.9-34.9 75.6-62.3 120.8-81.5 46.9-19.8 96.7-29.9 148-29.9 10.7 0 21.5 0.4 32.1 1.3 13.8 1.1 24 13.2 22.8 27-1.1 13.8-13.2 24-27 22.8-9.2-0.8-18.6-1.2-27.9-1.2-182 0-330.1 148.1-330.1 330.1-0.1 14-11.3 25.2-25.1 25.2zM846.8 696.3h-353v-30c0-11 9-20 20-20h313c11 0 20 9 20 20v30zM846.8 812.3h-353v-30c0-11 9-20 20-20h313c11 0 20 9 20 20v30zM846.8 928.3h-353v-30c0-11 9-20 20-20h313c11 0 20 9 20 20v30z" p-id="8642"></path><path d="M707.8 135.7C658.1 86 591.9 58.6 521.6 58.6S385.1 86 335.4 135.7s-77.1 115.9-77.1 186.2 27.4 136.5 77.1 186.2 115.9 77.1 186.2 77.1c70.4 0 136.5-27.4 186.3-77.2 49.7-49.7 77-115.8 77-186.1s-27.4-136.5-77.1-186.2z" p-id="8643"></path></svg>