<?xml version="1.0" standalone="no"?><!DOCTYPE svg PUBLIC "-//W3C//DTD SVG 1.1//EN" "http://www.w3.org/Graphics/SVG/1.1/DTD/svg11.dtd"><svg t="1596508551725" class="icon" viewBox="0 0 1024 1024" version="1.1" xmlns="http://www.w3.org/2000/svg" p-id="5414" xmlns:xlink="http://www.w3.org/1999/xlink" width="260" height="260"><defs><style type="text/css"></style></defs><path d="M512 0.512c282.112 0 511.488 229.376 511.488 511.488s-229.376 511.488-511.488 511.488c-76.8 0-152.064-16.896-221.184-50.176-12.8-6.144-18.432-22.016-12.288-34.816 6.144-12.8 22.016-18.432 34.816-12.288 61.952 29.696 130.048 45.056 198.656 45.056 253.44 0 459.264-206.336 459.264-459.264S764.928 52.736 512 52.736 52.736 259.072 52.736 512c0 61.952 12.288 123.392 36.864 180.224 5.632 13.312-0.512 28.672-13.824 34.304-13.312 5.632-28.672-0.512-34.304-13.824-27.136-63.488-40.96-131.584-40.96-200.704C0.512 229.888 229.888 0.512 512 0.512z" p-id="5415"></path><path d="M632.32 698.368l-307.2-307.2 67.072-67.072 307.2 307.2c0.512 0-67.072 67.072-67.072 67.072z" p-id="5416"></path><path d="M324.608 631.296l307.2-307.2 67.072 67.072-307.2 307.2c0 0.512-67.072-67.072-67.072-67.072z" p-id="5417"></path></svg>