<?xml version="1.0" standalone="no"?><!DOCTYPE svg PUBLIC "-//W3C//DTD SVG 1.1//EN" "http://www.w3.org/Graphics/SVG/1.1/DTD/svg11.dtd"><svg t="1595313011416" class="icon" viewBox="0 0 1536 1024" version="1.1" xmlns="http://www.w3.org/2000/svg" p-id="3305" xmlns:xlink="http://www.w3.org/1999/xlink" width="390" height="260"><defs><style type="text/css"></style></defs><path d="M0 0h1536v1024H0V0z" fill="#00458F" p-id="3306"></path><path d="M1536 358.4H921.6V0h-307.2v358.4H0v307.2h614.4V1024h307.2V665.6H1536v-307.2z" fill="#FFFFFF" p-id="3307"></path><path d="M1536 905.6L176 0H0v118.4L1360 1024H1536v-118.4z" fill="#FFFFFF" p-id="3308"></path><path d="M0 905.6L1360 0H1536v118.4L176 1024H0v-118.4z" fill="#FFFFFF" p-id="3309"></path><path d="M1536 422.4H857.6V0h-179.2v422.4H0v179.2h678.4V1024h179.2V601.6H1536v-179.2z" fill="#CC3440" p-id="3310"></path><path d="M1536 1020.8v-80l-412.8-275.2h-121.6L1536 1020.8zM1536 0h-121.6L921.6 326.4v28.8h76.8L1536 0zM534.4 665.6L0 1020.8v3.2h115.2l496-329.6v-28.8h-76.8zM0 0v80l416 278.4h121.6L0 0z" fill="#CC3440" p-id="3311"></path></svg>