<?xml version="1.0" standalone="no"?><!DOCTYPE svg PUBLIC "-//W3C//DTD SVG 1.1//EN" "http://www.w3.org/Graphics/SVG/1.1/DTD/svg11.dtd"><svg t="1595313094256" class="icon" viewBox="0 0 1024 1024" version="1.1" xmlns="http://www.w3.org/2000/svg" p-id="5285" xmlns:xlink="http://www.w3.org/1999/xlink" width="260" height="260"><defs><style type="text/css"></style></defs><path d="M17.656 847.448h988.69a17.658 17.658 0 0 0 17.656-17.656V194.206a17.658 17.658 0 0 0-17.656-17.656H17.656A17.66 17.66 0 0 0 0 194.206v635.586a17.656 17.656 0 0 0 17.656 17.656z" fill="#C8414B" p-id="5286"></path><path d="M0 317.794h1024v388.414H0z" fill="#FFD250" p-id="5287"></path><path d="M432.552 512l14.97-67.362c1.38-6.204-3.342-12.088-9.698-12.088h-10.544c-6.354 0-11.074 5.884-9.698 12.088L432.552 512z" fill="#C8414B" p-id="5288"></path><path d="M414.896 476.69h35.31v150.068h-35.31z" fill="#F5F5F5" p-id="5289"></path><path d="M406.068 459.034h52.966v17.656h-52.966z" fill="#FAB446" p-id="5290"></path><path d="M370.758 512h88.276v17.656h-88.276zM459.034 582.62l-52.966-17.654v-17.656l52.966 17.656zM167.724 512l14.97-67.362c1.38-6.204-3.342-12.088-9.698-12.088h-10.544c-6.354 0-11.074 5.884-9.698 12.088L167.724 512z" fill="#C8414B" p-id="5291"></path><path d="M229.518 459.034a17.658 17.658 0 0 0-17.656 17.656v114.758c0 21.45 20.02 61.794 88.276 61.794s88.276-40.342 88.276-61.794v-114.758a17.658 17.658 0 0 0-17.656-17.656h-141.24z" fill="#F5F5F5" p-id="5292"></path><path d="M300.138 547.31h-88.276v-70.62a17.658 17.658 0 0 1 17.656-17.656h70.62v88.276zM300.138 547.31h88.276v44.138c0 24.378-19.76 44.138-44.138 44.138-24.378 0-44.138-19.76-44.138-44.138v-44.138z" fill="#C8414B" p-id="5293"></path><path d="M211.862 547.31h88.276v44.138c0 24.378-19.76 44.138-44.138 44.138-24.378 0-44.138-19.76-44.138-44.138v-44.138z" fill="#FAB446" p-id="5294"></path><path d="M282.482 626.56v-79.25h-17.656v87.386c6.568-1.332 12.502-4.24 17.656-8.136zM247.172 634.696v-87.386h-17.656v79.25c5.156 3.896 11.09 6.804 17.656 8.136z" fill="#C8414B" p-id="5295"></path><path d="M229.518 512h52.966v17.656h-52.966z" fill="#FFB441" p-id="5296"></path><path d="M229.518 476.69h52.966v17.656h-52.966z" fill="#FAB446" p-id="5297"></path><path d="M238.344 487.172h35.31v31.984h-35.31z" fill="#FAB446" p-id="5298"></path><path d="M150.068 476.69h35.31v150.068H150.068z" fill="#F5F5F5" p-id="5299"></path><path d="M141.242 617.932h52.966v17.656H141.242zM141.242 459.034h52.966v17.656H141.242z" fill="#FAB446" p-id="5300"></path><path d="M132.414 635.586h70.62v17.656h-70.62z" fill="#5064AA" p-id="5301"></path><path d="M414.896 617.932h52.966v17.656h-52.966z" fill="#FAB446" p-id="5302"></path><path d="M397.242 635.586h70.62v17.656h-70.62z" fill="#5064AA" p-id="5303"></path><path d="M247.172 441.38h105.932v17.656h-105.932z" fill="#FAB446" p-id="5304"></path><path d="M291.31 388.414h17.656v52.966h-17.656z" fill="#FFB441" p-id="5305"></path><path d="M282.482 414.896c-14.604 0-26.482-11.88-26.482-26.482 0-14.604 11.88-26.482 26.482-26.482 14.604 0 26.482 11.88 26.482 26.482 0.002 14.602-11.878 26.482-26.482 26.482z m0-35.31a8.834 8.834 0 0 0-8.828 8.828c0 4.87 3.956 8.828 8.828 8.828s8.828-3.956 8.828-8.828a8.834 8.834 0 0 0-8.828-8.828z" fill="#F5F5F5" p-id="5306"></path><path d="M317.794 414.896c-14.604 0-26.482-11.88-26.482-26.482 0-14.604 11.88-26.482 26.482-26.482 14.604 0 26.482 11.88 26.482 26.482 0 14.602-11.88 26.482-26.482 26.482z m0-35.31a8.834 8.834 0 0 0-8.828 8.828 8.834 8.834 0 0 0 8.828 8.828 8.834 8.834 0 0 0 8.828-8.828 8.836 8.836 0 0 0-8.828-8.828z" fill="#F5F5F5" p-id="5307"></path><path d="M353.104 432.552c-14.604 0-26.482-11.88-26.482-26.482 0-14.604 11.88-26.482 26.482-26.482 14.604 0 26.482 11.88 26.482 26.482 0 14.602-11.88 26.482-26.482 26.482z m0-35.31a8.834 8.834 0 0 0-8.828 8.828 8.834 8.834 0 0 0 8.828 8.828 8.834 8.834 0 0 0 8.828-8.828 8.834 8.834 0 0 0-8.828-8.828zM247.172 432.552c-14.604 0-26.482-11.88-26.482-26.482 0-14.604 11.88-26.482 26.482-26.482 14.604 0 26.482 11.88 26.482 26.482 0.002 14.602-11.878 26.482-26.482 26.482z m0-35.31a8.834 8.834 0 0 0-8.828 8.828c0 4.87 3.956 8.828 8.828 8.828S256 410.94 256 406.068a8.832 8.832 0 0 0-8.828-8.826z" fill="#F5F5F5" p-id="5308"></path><path d="M353.104 582.62v8.828a8.838 8.838 0 0 1-8.828 8.828 8.838 8.838 0 0 1-8.828-8.828v-8.828h17.656m17.654-17.654h-52.966v26.482c0 14.604 11.88 26.482 26.482 26.482 14.604 0 26.482-11.88 26.482-26.482v-26.482h0.002z" fill="#FAB446" p-id="5309"></path><path d="M344.276 529.656A17.658 17.658 0 0 1 326.62 512v-17.656a17.658 17.658 0 0 1 35.312 0V512a17.658 17.658 0 0 1-17.656 17.656z" fill="#FFA0D2" p-id="5310"></path><path d="M300.138 547.31m-26.482 0a26.482 26.482 0 1 0 52.964 0 26.482 26.482 0 1 0-52.964 0Z" fill="#5064AA" p-id="5311"></path><path d="M291.31 353.104h17.656v52.966h-17.656z" fill="#FAB446" p-id="5312"></path><path d="M247.172 441.38l-17.656-17.656 10.342-10.342a85.254 85.254 0 0 1 120.56 0l10.342 10.342-17.656 17.656h-105.932z" fill="#C8414B" p-id="5313"></path><path d="M300.138 423.724m-8.828 0a8.828 8.828 0 1 0 17.656 0 8.828 8.828 0 1 0-17.656 0Z" fill="#FFD250" p-id="5314"></path><path d="M264.828 423.724m-8.828 0a8.828 8.828 0 1 0 17.656 0 8.828 8.828 0 1 0-17.656 0Z" fill="#FFD250" p-id="5315"></path><path d="M335.448 423.724m-8.828 0a8.828 8.828 0 1 0 17.656 0 8.828 8.828 0 1 0-17.656 0Z" fill="#FFD250" p-id="5316"></path><path d="M141.242 512h88.276v17.656H141.242zM141.242 582.62l52.964-17.654v-17.656l-52.964 17.656z" fill="#C8414B" p-id="5317"></path></svg>