<?xml version="1.0" standalone="no"?><!DOCTYPE svg PUBLIC "-//W3C//DTD SVG 1.1//EN" "http://www.w3.org/Graphics/SVG/1.1/DTD/svg11.dtd"><svg t="1588907232318" class="icon" viewBox="0 0 1024 1024" version="1.1" xmlns="http://www.w3.org/2000/svg" p-id="2389" xmlns:xlink="http://www.w3.org/1999/xlink" width="200" height="200"><defs><style type="text/css"></style></defs><path d="M970.24 258.944v499.456c0 13.696-1.28 27.136-3.84 40.064l-1.536 6.912c-0.512 2.304-1.024 4.352-1.792 6.656-14.72 54.784-52.096 100.736-100.992 126.976-2.048 1.28-4.096 2.304-6.4 3.328-2.048 1.28-4.352 2.304-6.656 3.328-25.6 11.392-54.144 18.048-84.096 18.048h-499.2c-11.136 0-22.4-1.024-33.024-2.56-2.048-0.512-4.352-0.768-6.4-1.28s-4.352-0.768-6.4-1.536c-91.136-20.608-159.488-102.272-159.488-199.808V258.944c0-26.88 5.376-52.864 14.72-76.416 0.768-2.048 1.792-4.096 2.816-5.888 0.768-2.048 1.536-4.096 2.56-6.144C107.264 114.688 158.208 72.832 219.904 58.88c2.048-0.512 4.352-1.024 6.4-1.28 2.048-0.512 4.352-0.768 6.4-1.28 10.368-1.536 20.864-2.56 31.744-2.56h500.736C878.336 53.76 970.24 145.664 970.24 258.944z" fill="#8ED980" p-id="2390"></path><path d="M964.864 805.248c-0.512 2.304-1.024 4.352-1.792 6.656-14.72 54.784-52.096 100.736-100.992 126.976-2.048 1.28-4.096 2.304-6.4 3.328l-88.576-62.72-27.904-19.84-10.368-7.424-12.16-8.576-83.84-59.392-11.392-7.808s-0.256 0-0.256-0.256L611.84 769.28l-20.48-14.464-146.944-104.064-32-22.656-12.672-9.088-42.368-29.952-45.696-32.512-16.512-11.648-30.72-21.888-31.744-22.4-12.672-9.088-10.368-7.424-149.12-105.6v-119.552c0-26.88 5.376-52.864 14.72-76.416 0.768-2.048 1.792-4.096 2.816-5.888l141.952 100.608 12.672 9.088 31.744 22.4 103.04 73.088 32.256 22.912 12.672 9.088 308.992 218.88 18.048 12.672 5.888 4.352 6.4 4.352 56.832 40.32 17.792 12.672 53.12 37.632 5.888 4.352 5.888 3.84v0.256l13.184 9.344 60.416 42.752z" fill="#FFD34A" p-id="2391"></path><path d="M406.016 53.76v909.696H265.728c-11.136 0-22.4-1.024-33.024-2.56-2.048-0.512-4.352-0.768-6.4-1.28V57.6c2.048-0.512 4.352-0.768 6.4-1.28 10.368-1.536 20.864-2.56 31.744-2.56h141.568z" fill="#FFFFFF" p-id="2392"></path><path d="M264.448 53.76h103.04v502.784h-103.04z" fill="#008DDA" p-id="2393"></path><path d="M667.904 53.76h-161.28C509.44 311.936 714.368 522.752 970.24 534.656V373.12C803.2 361.472 670.336 223.104 667.904 53.76z" fill="#FFFFFF" p-id="2394"></path><path d="M674.176 53.76h-12.672c2.56 172.928 138.112 314.112 308.736 325.76v-12.672C806.528 355.2 676.736 219.776 674.176 53.76z m0 0h-12.672c2.56 172.928 138.112 314.112 308.736 325.76v-12.672C806.528 355.2 676.736 219.776 674.176 53.76z m0 0h-12.672c2.56 172.928 138.112 314.112 308.736 325.76v-12.672C806.528 355.2 676.736 219.776 674.176 53.76z m-161.152 0H500.48c2.56 261.76 210.176 475.264 469.76 487.04v-12.416C717.824 516.096 515.712 308.48 513.024 53.76z" fill="#80C073" p-id="2395"></path><path d="M441.344 656.256L593.92 764.416l22.4 16 11.392 7.808 0.256 0.256 16 11.392 53.376 37.888h0.256l16.512 11.648s0 0.256 0.256 0.256l11.904 8.576 29.952 21.888h0.768l92.16 65.28c2.304-1.024 4.608-2.048 6.656-3.328 2.304-1.024 4.352-2.048 6.4-3.328l-86.016-60.928-25.344-17.664-8.832-6.656c-0.256 0-0.256 0-0.512-0.256l-10.112-6.912-68.352-48.384-4.096-3.072-32.768-23.04-9.344-6.656-8.32-5.888-18.816-13.44-142.464-100.992c-1.92 3.84-3.84 7.68-5.888 11.392zM213.888 479.616L60.544 370.944v15.488l144.64 102.528c2.816-3.2 5.632-6.4 8.704-9.344zM80.512 170.496c-1.024 2.048-1.792 4.096-2.56 6.144-1.024 1.792-2.048 3.84-2.816 5.888l144.768 102.528v-15.488L80.512 170.496zM905.984 755.84l-13.952-9.856-5.632-4.096-5.888-4.096-43.136-30.72-9.088-6.4-8.832-6.4-44.928-31.744v-0.256l-20.864-14.464c-0.256-0.256-0.512-0.256-0.768-0.512L746.24 642.56l-17.28-12.16-316.544-224.512v15.488l300.928 213.248 19.072 13.44 6.144 4.608 6.144 4.096 52.864 37.632 8.832 6.4 9.088 6.4 62.72 44.672 5.632 3.84 5.632 3.84 13.184 9.344 60.672 43.136c0.768-2.304 1.28-4.352 1.792-6.656l1.536-6.912-60.672-42.624z" fill="#FFA934" p-id="2396"></path><path d="M219.904 958.208c2.048 0.768 4.352 1.024 6.4 1.536 2.048 0.512 4.352 0.768 6.4 1.28V701.824c-4.48-3.072-8.704-6.528-12.672-10.112v266.496z" fill="#FFB0BD" p-id="2397"></path><path d="M232.704 278.4V56.32c-2.048 0.512-4.352 0.768-6.4 1.28-2.048 0.256-4.352 0.768-6.4 1.28v210.688l6.4 4.352 6.4 4.48z" fill="#C5C3BD" p-id="2398"></path><path d="M232.704 293.888l-6.4-4.352-6.4-4.608v188.928c4.096-3.584 8.32-6.912 12.672-10.112V293.888z" fill="#EAC243" p-id="2399"></path><path d="M412.416 53.76h-12.672v343.04l12.672 9.088z" fill="#80C073" p-id="2400"></path><path d="M399.744 963.456h12.672V691.328c-4.096 3.584-8.32 7.04-12.672 10.112v262.016z" fill="#C5C3BD" p-id="2401"></path><path d="M399.744 412.544v51.84c4.48 3.2 8.704 6.528 12.672 10.112v-53.12l-6.4-4.352-6.272-4.48z" fill="#EAC243" p-id="2402"></path><path d="M399.744 396.8v15.744l6.272 4.608 6.4 4.224v-15.488zM232.704 293.888v-15.488l-6.4-4.48-6.4-4.352v15.488l6.4 4.608z" fill="#EE9B30" p-id="2403"></path><path d="M447.232 644.864c8.832-18.816 13.952-39.68 13.952-61.952 0-43.136-18.944-81.792-48.768-108.416v145.664l34.816 24.704zM205.184 488.96c-21.504 25.344-34.56 58.112-34.56 93.952 0 43.392 19.2 82.304 49.28 108.928V499.328l-14.72-10.368zM232.704 464v29.056l31.744 22.4 33.024 23.296 24.832 17.792 31.488 22.4h0.256l45.696 32.512V464.384c-23.68-16.768-52.608-26.752-83.84-26.752-30.976 0-59.648 9.856-83.2 26.368zM360.832 599.424l-60.416-42.88-7.68-5.376-28.416-20.352-31.744-22.4v193.408c23.552 16.512 52.224 26.368 83.328 26.368 31.232 0 60.16-9.984 83.84-26.752v-74.624l-38.912-27.392zM219.904 474.112c-2.048 1.792-4.096 3.584-6.016 5.504l6.016 4.352v-9.856zM412.416 691.328c11.392-10.112 21.12-21.888 28.8-35.2l-28.8-20.48v55.68z" fill="#0078D3" p-id="2404"></path><path d="M357.376 588.928l-45.696-32.384-16.512-11.776-30.72-21.76-31.744-22.4v7.936l31.744 22.272 28.416 20.352 7.552 5.376 60.416 42.88 38.912 27.392v-7.936z" fill="#0078D3" p-id="2405"></path><path d="M353.792 578.816l-31.488-22.272-24.96-17.792-32.896-23.424-31.744-22.272v7.552l31.744 22.4 30.72 21.76 16.512 11.776 45.696 32.384 42.368 29.952v-7.552l-45.696-32.512zM219.904 483.84l-6.016-4.352c-3.072 2.944-5.888 6.144-8.704 9.344l14.72 10.368v-15.36zM412.416 635.648l28.8 20.48c2.176-3.712 4.096-7.424 6.016-11.392l-34.816-24.576v15.488zM219.904 499.328v192.512c4.096 3.584 8.32 6.912 12.672 10.112V508.544l-12.672-9.216zM406.016 631.424l-6.4-4.608V701.44c4.48-3.2 8.704-6.528 12.672-10.112v-55.68l-6.272-4.224z" fill="#0078D3" p-id="2406"></path><path d="M399.744 611.328l6.4 4.608 6.4 4.352V474.496c-4.096-3.584-8.32-7.04-12.672-10.112v146.944zM232.704 493.056v-29.056c-4.48 3.072-8.704 6.528-12.672 10.112v9.856l12.672 9.088z" fill="#0078D3" p-id="2407"></path><path d="M232.704 493.056l-12.8-9.216v15.488l12.8 9.216v-7.936zM399.744 626.816l6.272 4.608 6.4 4.224v-15.488l-6.4-4.224-6.272-4.608v7.552zM910.592 718.848c0 89.344-72.32 161.792-161.792 161.792-89.344 0-161.792-72.32-161.792-161.792 0-33.792 10.368-65.28 28.16-91.392 18.816 7.808 39.04 11.904 60.672 11.904 27.648 0 53.632-6.912 76.16-19.328 22.656 12.416 48.512 19.328 76.16 19.328 19.584 0 38.144-3.584 55.296-9.856 17.152 25.6 27.136 56.32 27.136 89.344z" fill="#0078D3" p-id="2408"></path><path d="M887.552 725.376c0 70.912-62.08 128.384-138.752 128.384-76.672 0-138.752-57.472-138.752-128.384 0-26.88 8.96-51.84 24.192-72.576 16.128 6.272 33.536 9.472 52.096 9.472 23.808 0 45.952-5.504 65.408-15.36 19.456 9.856 41.6 15.36 65.408 15.36 16.768 0 32.64-2.816 47.488-7.808 14.464 20.224 22.912 44.672 22.912 70.912z" fill="#0078D3" p-id="2409"></path><path d="M892.8 707.072l-1.536-7.68v-0.256c-1.536-7.68-3.84-14.976-6.912-22.144-0.256-0.256-0.256-0.768-0.512-1.024l-2.304-5.376c-3.328-7.168-7.424-13.696-11.904-20.352l-2.816-3.584-4.352 1.536c-7.424 2.56-14.976 4.352-22.656 5.632-7.424 1.024-15.232 1.792-23.168 1.792-22.656 0-43.392-4.864-62.208-14.464l-2.816-1.536-2.816 1.664c-0.768 0.512-1.536 0.768-2.56 1.28-2.304 1.024-4.608 2.048-6.912 2.816-2.304 1.28-4.608 2.048-7.168 2.816-14.464 5.12-29.952 7.68-46.208 7.68-17.28 0-34.048-3.072-49.792-8.832l-4.352-1.792-3.072 3.84c-2.56 3.328-4.608 6.912-6.656 10.112-1.28 2.048-2.56 4.096-3.584 6.144-0.512 1.024-1.024 2.048-1.28 2.816-1.536 2.56-2.816 5.376-3.84 8.064-2.56 5.632-4.608 11.648-5.888 17.536-0.768 2.048-1.024 3.84-1.536 5.888v0.768l-1.536 6.4v0.512c-0.768 6.144-1.28 12.16-1.28 18.304 0 11.648 1.536 23.168 4.864 34.048 0.768 3.328 1.792 6.656 3.328 9.856 1.28 3.84 2.816 7.68 4.608 11.136 19.84 40.832 60.928 70.784 109.952 77.952 4.352 0.768 8.32 1.28 12.928 1.28 3.072 0.512 6.4 0.512 9.6 0.512h2.048c66.56-0.768 122.368-43.392 138.368-100.736 0.768-2.048 1.28-4.096 1.792-6.4v-0.256c0.512-2.304 1.024-4.608 1.024-6.912 1.536-6.656 2.048-13.44 2.048-20.608 0.384-6.272-0.128-12.416-0.896-18.432zM879.36 744.576c0 2.56-0.512 4.864-1.28 7.168-12.928 54.528-66.048 95.744-129.28 95.744-6.144 0-11.904-0.256-17.536-1.024-5.12-0.768-9.856-1.536-14.72-2.816-6.656-1.28-12.928-3.328-19.072-5.888h-0.256c-21.12-8.064-39.296-21.376-53.376-37.888-4.096-4.864-7.808-10.112-11.136-15.744-2.56-3.84-4.608-8.064-6.656-12.416-6.4-14.208-9.856-29.952-9.856-46.464 0-6.144 0.512-12.16 1.536-18.304 0.256-2.048 0.768-4.096 1.28-6.4 0.512-2.048 1.024-4.352 1.536-6.4 0.512-1.536 1.024-3.328 1.536-4.864 0.512-2.048 1.28-4.096 2.304-6.144 2.048-5.12 4.352-10.112 7.168-14.976 1.536-2.816 3.328-5.376 5.12-8.064 15.744 5.376 32.512 8.064 49.536 8.064 20.864 0 40.32-3.84 58.368-11.648 2.304-0.512 4.864-1.792 7.168-2.816 7.424 3.584 14.976 6.4 22.912 8.32v0.256c13.44 3.84 27.648 5.888 42.368 5.888 4.352 0 8.32-0.256 12.672-0.512 10.88-0.768 21.888-2.816 32.512-6.144 6.144 9.344 11.136 19.584 14.208 30.464 0.256 0.512 0.512 1.28 0.512 2.048 0.768 2.048 1.28 4.096 1.792 6.4 0.512 2.048 1.024 4.096 1.28 6.4 1.024 6.144 1.536 12.16 1.536 18.304 0 4.352-0.256 8.32-0.768 12.416-0.384 2.56-0.64 4.864-1.408 7.04z" fill="#EEEAE5" p-id="2410"></path><path d="M884.992 700.672H612.608c3.584-17.536 11.136-33.792 21.632-48 16 6.144 33.536 9.344 52.096 9.344 23.808 0 45.952-5.376 65.536-15.232 19.328 9.856 41.344 15.232 65.28 15.232 16.768 0 32.768-2.816 47.488-7.808 9.728 13.696 16.896 29.44 20.352 46.464z" fill="#FFFFFF" p-id="2411"></path><path d="M884.992 700.672H612.608c3.584-17.536 11.136-33.792 21.632-48 16 6.144 33.536 9.344 52.096 9.344 23.808 0 45.952-5.376 65.536-15.232 19.328 9.856 41.344 15.232 65.28 15.232 16.768 0 32.768-2.816 47.488-7.808 9.728 13.696 16.896 29.44 20.352 46.464z" fill="#E7322C" p-id="2412"></path><path d="M891.264 699.392v-0.256c-1.792-7.68-4.096-14.976-6.912-22.144-0.256-0.256-0.256-0.768-0.512-1.024l-2.304-5.376c-3.328-7.168-7.424-13.696-11.904-20.352l-2.816-3.584v-0.256l-4.608 1.536c-7.424 2.56-14.72 4.352-22.4 5.888-7.424 1.024-15.232 1.792-23.168 1.792-22.656 0-43.392-4.864-62.208-14.464l-2.816-1.536-2.816 1.664c-0.768 0.512-1.536 0.768-2.56 1.28-2.304 1.024-4.608 2.048-6.912 2.816-2.304 1.28-4.608 2.048-7.168 2.816-14.464 5.12-29.952 7.68-46.208 7.68-17.28 0-34.048-3.072-49.792-8.832l-4.352-1.792h-0.256l-2.816 3.84c-2.56 3.328-4.608 6.912-6.656 10.112-1.28 2.048-2.56 4.096-3.584 6.144-0.512 1.024-1.024 2.048-1.28 2.816-1.536 2.56-2.816 5.376-3.84 8.064-2.56 5.632-4.608 11.648-5.888 17.536-0.768 2.048-1.024 3.84-1.536 5.888v0.768l-1.536 6.4v0.512h287.872l-1.024-7.936z m-270.592-4.992c0.512-1.536 1.024-3.328 1.536-4.864 0.512-2.048 1.28-4.096 2.304-6.144 1.792-5.12 4.352-10.112 7.168-14.976 1.536-2.816 3.328-5.376 5.12-8.064 15.744 5.376 32.512 8.064 49.536 8.064 20.864 0 40.32-3.84 58.368-11.648 2.304-0.512 4.864-1.792 7.168-2.816 7.424 3.584 14.976 6.4 22.912 8.32v0.256c13.44 3.84 27.648 5.888 42.368 5.888 4.352 0 8.32-0.256 12.672-0.512 11.136-1.024 22.144-3.072 32.512-6.144 6.144 9.344 11.136 19.584 14.208 30.464 0.256 0.768 0.512 1.28 0.768 2.048H620.672z" fill="#EEEAE5" p-id="2413"></path><path d="M698.752 763.136c4.096-6.144 6.4-11.264 6.784-15.872 0.512-4.608-0.128-8.704-1.92-12.16-1.792-3.328-4.096-6.016-6.784-7.68-2.688-1.664-5.376-2.688-7.808-3.2-2.432-0.512-5.248-0.512-8.064-0.256-5.248 0.256-9.984 2.048-13.824 5.248-3.84 3.072-6.912 7.936-9.344 14.464l-1.28 3.584 14.208 2.176 0.896-2.432c1.152-3.072 2.688-5.248 4.736-6.784 2.048-1.536 4.224-2.304 6.528-2.56 1.92-0.128 3.584 0.256 5.12 1.408 1.536 1.28 2.432 2.688 2.688 4.48 0.256 2.048-0.256 4.608-1.536 7.68-1.536 3.328-4.864 8.32-10.112 14.72-5.248 6.528-9.728 11.264-13.056 14.336-4.096 3.712-6.4 7.936-6.784 12.672v4.864h47.36V784.64h-25.344c8.448-9.472 14.208-16.64 17.536-21.504zM771.2 763.904c-1.28-1.792-3.072-3.584-5.376-4.864 2.816-2.304 4.608-5.12 5.632-8.32 1.536-4.864 1.536-9.088 0.256-12.928-1.28-3.584-3.584-6.656-6.656-8.576-2.816-2.048-5.376-3.328-7.808-3.84-4.864-1.28-11.392-1.28-16.512 0-2.816 1.024-5.632 2.56-7.808 4.608-2.048 2.304-3.84 4.608-4.864 6.912-1.28 2.56-1.792 5.632-1.536 8.832 0.256 3.328 0.768 6.4 2.048 8.832 1.024 1.536 2.048 3.072 3.84 4.608-2.304 1.792-4.096 3.584-5.376 5.888-1.792 3.584-2.816 7.168-2.816 10.624 0 3.584 0.512 6.656 1.28 9.344 0.768 3.072 2.304 5.632 4.608 7.808 2.304 2.048 5.12 3.84 8.32 4.864 3.328 1.024 6.912 1.536 11.136 1.536 4.608 0 8.064-0.512 10.88-1.536 3.072-1.024 5.632-2.56 7.424-4.608 1.792-1.792 3.328-4.096 4.608-6.656 1.536-2.816 2.304-6.4 2.304-10.88s-1.28-8.32-3.584-11.648zM742.272 739.84c1.024-1.28 3.072-2.048 6.144-2.048 0.512 0 0.768-0.256 1.28-0.256 2.56 0 4.608 0.512 5.888 1.536 1.024 0.768 2.304 1.792 2.304 4.864 0.256 2.56-0.512 4.608-2.048 6.4-1.28 1.536-3.584 2.304-6.656 2.304-3.072 0-5.12-0.768-6.4-2.304-1.536-1.792-2.304-3.584-2.304-5.632 0-1.92 0.512-3.328 1.792-4.864z m16.512 41.088c-1.024 2.048-2.56 3.328-5.12 3.84-3.072 0.768-6.144 0.768-8.832 0.256-2.816-0.768-3.84-2.048-4.352-2.816-1.024-2.048-1.536-4.352-1.28-6.912 0-2.304 0.768-4.096 2.56-5.632 1.792-1.536 4.096-2.56 6.912-2.816h0.768c2.56 0 4.864 0.768 6.912 2.048 2.304 1.536 3.328 3.328 3.584 5.12 0.384 2.304-0.128 4.608-1.152 6.912zM840.704 746.368c-1.28-6.144-3.84-11.392-7.808-15.744-4.096-4.608-9.088-6.656-14.72-6.656s-10.112 1.536-13.952 4.608c-3.84 2.816-6.656 6.656-8.576 11.136-1.792 4.352-2.816 10.112-3.328 17.536-0.256 7.168 0.256 12.928 1.024 17.28 0.768 4.352 2.304 8.32 4.352 12.416 2.304 4.096 6.144 7.68 11.136 10.112 3.072 1.28 6.144 2.048 9.088 2.048 2.56 0 4.864-0.512 7.424-1.536 5.376-2.048 9.344-5.888 12.16-11.136 2.304-5.12 3.84-11.648 4.352-19.584 0.128-7.552-0.128-14.336-1.152-20.48z m-15.488 31.488c-1.28 3.584-3.072 5.888-5.376 6.912-1.536 0.768-3.584 1.024-6.4-1.024-2.56-1.792-4.352-5.376-5.376-10.112-1.28-5.12-1.536-11.392-0.768-18.048 0.768-6.656 2.048-11.392 4.352-14.464 1.792-2.304 3.84-3.584 6.144-3.584h0.256c1.28 0 3.328 0.512 5.376 3.84 1.792 2.816 2.816 6.4 3.328 9.856 0.256 4.096 0.512 8.576 0.512 13.696 0 4.608-0.768 9.088-2.048 12.928zM314.624 491.392l-60.032 164.352c-1.664 4.48 3.84 8.192 7.68 5.248l54.016-41.6c1.792-1.408 4.48-1.408 6.272 0.128l49.792 40.96c3.712 3.072 9.344-0.512 7.808-4.992l-56.192-163.84c-1.536-4.48-7.808-4.48-9.344-0.256z" fill="#FFFFFF" p-id="2414"></path><path d="M756.224 880.256c-2.432 0.128-4.864 0.384-7.424 0.384-73.6 0-135.552-49.152-155.136-116.352l-152.32-107.904-0.128-0.128c-7.68 13.184-17.408 25.088-28.8 35.2v272.128h352.64c29.952 0 58.368-6.656 84.096-18.048l-92.16-65.28h-0.768zM219.904 59.392c-61.696 13.952-112.64 55.808-139.392 111.744L219.904 270.08V59.392z" fill="#DFDCD6" p-id="2415"></path><path d="M170.624 584.064c0-35.84 13.056-68.608 34.56-93.952l-144.64-102.656v371.968c0 97.536 68.352 179.2 159.488 199.808v-266.24c-30.208-26.624-49.408-65.536-49.408-108.928z" fill="#FFC9D1" p-id="2416"></path></svg>