<?xml version="1.0" standalone="no"?><!DOCTYPE svg PUBLIC "-//W3C//DTD SVG 1.1//EN" "http://www.w3.org/Graphics/SVG/1.1/DTD/svg11.dtd"><svg t="1608023998027" class="icon" viewBox="0 0 1075 1024" version="1.1" xmlns="http://www.w3.org/2000/svg" p-id="4970" xmlns:xlink="http://www.w3.org/1999/xlink" width="272.94921875" height="260"><defs><style type="text/css"></style></defs><path d="M0.002048 932.862317A90.572438 90.572438 0 0 0 87.0417 1023.997952h895.996416a91.545234 91.545234 0 0 0 92.159631-91.135635V91.137683A91.545234 91.545234 0 0 0 983.038116 0.002048H87.0417A90.572438 90.572438 0 0 0 0.002048 91.137683v841.724634zM296.96086 358.400614h634.877461a46.079816 46.079816 0 0 1 40.959836 47.61581v467.966128a46.079816 46.079816 0 0 1-40.959836 47.61581H296.96086a46.079816 46.079816 0 0 1-40.959836-47.61581V406.016424A46.079816 46.079816 0 0 1 296.96086 358.400614zM102.401638 102.401638h870.396519v153.599386H102.401638V102.401638z" p-id="4971"></path></svg>