<?xml version="1.0" standalone="no"?><!DOCTYPE svg PUBLIC "-//W3C//DTD SVG 1.1//EN" "http://www.w3.org/Graphics/SVG/1.1/DTD/svg11.dtd"><svg t="1590387718264" class="icon" viewBox="0 0 1024 1024" version="1.1" xmlns="http://www.w3.org/2000/svg" p-id="23022" width="260" height="260" xmlns:xlink="http://www.w3.org/1999/xlink"><defs><style type="text/css"></style></defs><path d="M771.626667 853.333333H768a42.666667 42.666667 0 0 1 0-85.333333h128a128 128 0 0 1 0 256H128a128 128 0 0 1 0-256h128a42.666667 42.666667 0 0 1 0 85.333333H128a42.666667 42.666667 0 0 0 0 85.333334h768a42.666667 42.666667 0 0 0 0-85.333334h-124.373333z m-230.101334-27.904a42.666667 42.666667 0 0 1-59.050666 0C274.602667 626.346667 170.666667 466.048 170.666667 344.746667 170.666667 154.368 323.498667 0 512 0s341.333333 154.368 341.333333 344.746667c0 121.301333-103.936 281.557333-311.808 480.682666zM512 512c94.293333 0 170.666667-76.032 170.666667-169.813333s-76.373333-169.813333-170.666667-169.813334-170.666667 76.032-170.666667 169.813334S417.706667 512 512 512z" p-id="23023"></path></svg>