<?xml version="1.0" standalone="no"?><!DOCTYPE svg PUBLIC "-//W3C//DTD SVG 1.1//EN" "http://www.w3.org/Graphics/SVG/1.1/DTD/svg11.dtd"><svg t="1590387247732" class="icon" viewBox="0 0 1024 1024" version="1.1" xmlns="http://www.w3.org/2000/svg" p-id="22112" width="290" height="290" xmlns:xlink="http://www.w3.org/1999/xlink"><defs><style type="text/css"></style></defs><path d="M89.3 754.61H14.4c-7.9 0-14.4 6.5-14.4 14.4v43.8c0 7.9 6.5 14.4 14.4 14.4h34.9c4.3-28.99 18.8-54.5 40-72.6zM1009.6 754.61h-35v-195.8c0-22.9-6.9-45.4-19.7-64.4l-87.8-130c-21.5-31.7-57.2-50.7-95.5-50.7h-136c-16 0-28.8 13-28.8 28.8l0.22 412.1-281.92-0.2h-81.3c21.2 18.2 35.7 43.7 40 72.6h375c8.4-57.2 57.6-101.4 117.1-101.4 59.5 0 108.6 44.2 117 101.4h116.7c7.9 0 14.4-6.5 14.4-14.4v-43.8c0-7.7-6.5-14.2-14.4-14.2zM866.1 520.32H686.6c-7.9 0-14.4-6.3-14.4-14.4v-99.5c0-7.9 6.5-14.4 14.4-14.4h109.3c4.8 0 9.1 2.3 11.8 6.1l70.2 99.7c6.6 9.4-0.1 22.5-11.8 22.5z" p-id="22113"></path><path d="M775.9 754.61c-49.6 0-89.6 40.2-89.6 89.8 0 49.4 40 89.6 89.6 89.6 49.4 0 89.6-40.2 89.6-89.6 0-49.6-40.2-89.8-89.6-89.8z m-609.3 0c-49.4 0-89.6 40.2-89.6 89.8 0 49.4 40.2 89.6 89.6 89.6 49.6 0 89.6-40.2 89.6-89.6 0-49.6-40.1-89.8-89.6-89.8z m0 134.51" p-id="22114"></path><path d="M422.9 209.98v-65.22l-261.02 0.49v64.73h0.55z" p-id="22115"></path><path d="M563.92 183.99c-3.32-7.74-7.74-14.38-13.83-20.46-5.53-6.08-12.72-10.51-20.46-13.83-8.29-3.32-16.59-4.98-25.44-4.98H456l-1.02 97.88H129.8v-97.33H80.58c-8.85 0-17.14 1.66-25.44 4.98-7.74 3.32-14.38 7.74-20.46 13.83-6.09 5.53-10.51 12.72-13.83 20.46-3.32 8.3-4.98 16.59-4.98 25.44v440.76c0 8.85 1.66 17.14 4.98 25.44 3.32 7.74 7.74 14.38 13.83 20.46 5.53 6.08 12.72 10.51 20.46 13.83 8.29 3.32 16.59 4.97 25.44 4.97H504.2c8.85 0 17.14-1.66 25.44-5.53 7.74-3.32 14.38-7.74 20.46-13.83 6.09-5.53 10.51-12.72 13.83-20.46 3.32-8.3 4.98-16.59 4.98-25.44V209.43c-0.01-8.85-1.67-17.14-4.99-25.44zM325.57 535.71H145.84v-33.18h179.73v33.18z m113.92-145.99H145.84v-33.18H439.5v33.18z" p-id="22116"></path><path d="M162.43 209.98H422.9v-73.55c0-4.43-3.87-8.3-8.29-8.3H349.9l-3.87-11.06c-7.74-22.68-29.31-38.16-53.64-38.16s-45.9 15.48-53.64 38.16l-3.87 11.06h-64.71c-4.42 0-8.29 3.87-8.29 8.3v73.55h0.55" p-id="22117"></path></svg>